<?xml version="1.0" encoding="utf-8"?>
<!-- Svg Vector Icons : http://www.onlinewebfonts.com/icon -->
<!DOCTYPE svg PUBLIC "-//W3C//DTD SVG 1.1//EN" "http://www.w3.org/Graphics/SVG/1.1/DTD/svg11.dtd">
<svg version="1.1" xmlns="http://www.w3.org/2000/svg" xmlns:xlink="http://www.w3.org/1999/xlink" x="0px" y="0px" viewBox="0 0 256 256" enable-background="new 0 0 256 256" xml:space="preserve">
<metadata> Svg Vector Icons : http://www.onlinewebfonts.com/icon </metadata>
<g><g><g><path fill="#000000" d="M145.5,10.8c-6.2,1.3-9.4,3.4-21.7,14.2c-6.2,5.5-12.2,10.6-13.4,11.3c-3.8,2.5-7.1,3.2-15,3.2c-4.4,0-7.5,0.2-8.3,0.6c-1.1,0.5-1.4,0.2-7.1-5.3c-3.2-3.2-6.4-5.9-6.9-6.1c-2.8-0.9-3.4-0.4-19.1,15.3L39.1,59.1v2c0,2,0.1,2.1,6.5,8.6l6.5,6.6l-1,1.2l-1,1.2v71c0,70.4,0,71.1,1,74.5c2.1,7.7,8,14.8,15.2,18.4c7,3.4,3.7,3.3,67.3,3.3c63.4,0,60.3,0.1,67.1-3.2c8.1-4,14.2-11.9,15.9-20.6c0.4-2,0.5-27.5,0.4-95.9l-0.1-93.1l-1.2-3.4c-3.5-9.6-12.1-17.2-21.8-19.2C189.1,9.7,150,9.8,145.5,10.8z M191,31.4c1.5,1.5,1.6,1.8,1.4,3.5c-0.1,1.2-0.7,2.3-1.4,3.1l-1.2,1.2l-16,0.1c-8.8,0.1-16.5,0-17.1-0.1c-3.4-0.8-4.5-5.6-2-8.1l1.3-1.3h16.7h16.7L191,31.4z M112,124.2l21.6,21.6l21.6-21.6c21.4-21.4,21.6-21.5,23.4-21.5c3.4,0,5.9,3.3,4.8,6.3c-0.3,0.7-9.7,10.5-21.7,22.5l-21.2,21.2l21.2,21.2c14.7,14.7,21.3,21.7,21.7,22.7c0.4,1.2,0.3,1.8-0.4,3.2c-1,2.2-2.6,3-4.9,2.7c-1.7-0.2-3.3-1.7-23.2-21.6l-21.3-21.3l-21.1,21c-11.6,11.6-21.6,21.3-22.1,21.6c-1.8,0.9-3.7,0.6-5.3-0.8c-1.3-1.2-1.5-1.7-1.5-3.5v-2.1l21.6-21.6l21.5-21.5l-21-21c-11.5-11.5-21.3-21.6-21.7-22.3c-1.6-3,0.9-6.7,4.6-6.7C90.4,102.7,90.5,102.7,112,124.2z"/></g></g></g>
</svg>